# xmcd
#
# Track frame offsets:
#	150
#	12497
#	26356
#	43113
#	67790
#	81715
#	95128
#	120360
#	145707
#	162385
#	177809
#	203919
#	219763
#
# Disc length: 3310 seconds
#
# Revision: 0
# Processed by: cddbd v1.5.2PL0 Copyright (c) Steve Scherf et al.
# Submitted via: audiograbber 1.83.01
#
DISCID=ac0cec0d
DTITLE=Marc Amacher - Roadhouse
DYEAR=1900
DGENRE=
TTITLE0=Roadhouse - Roadhouse Version
TTITLE1=Kid - Roadhouse Version
TTITLE2=Jack Driver - Roadhouse Version
TTITLE3=Ride On
TTITLE4=Smoke Stack Lightning
TTITLE5=Valley of Tears - Roadhouse Version
TTITLE6=Death Letter - Roadhouse Version
TTITLE7=Grandma
TTITLE8=Open Window - Roadhouse Version
TTITLE9=Down with the Blues - Roadhouse Version
TTITLE10=Bluesman
TTITLE11=Good Old Rock n Roll - Roadhouse Version
TTITLE12=What She Say
EXTD=
EXTT0=
EXTT1=
EXTT2=
EXTT3=
EXTT4=
EXTT5=
EXTT6=
EXTT7=
EXTT8=
EXTT9=
EXTT10=
EXTT11=
EXTT12=
PLAYORDER=
